# xmcd
# Copyright (C) 1995-1998 Ti Kan
#
# Track frame offsets:
#       150
#       12481
#       27707
#       37017
#       48186
#
# Disc length: 814 seconds
#
# Revision: 0
# Processed by: cddbd v1.5.2PL0 Copyright (c) Steve Scherf et al.
# Submitted via: CD-Import v1.0
#
DISCID=3d032c05
DTITLE=Kolumbien - 
DYEAR=1900
DGENRE=
TTITLE0=Sounds - Mangoverkäufer
TTITLE1=Sounds - Schulhaus
TTITLE2=Sounds - Das Zentrum Von Medellin
TTITLE3=Sounds - Vögel, Autos Und Flugzeuge In Medellin
TTITLE4=Sounds - Der Parque Lleraz In Der Nacht
EXTD=
EXTT0=
EXTT1=
EXTT2=
EXTT3=
EXTT4=
PLAYORDER=
